<?xml version="1.0" encoding="utf-8"?>
<!-- Generator: Adobe Illustrator 16.0.0, SVG Export Plug-In . SVG Version: 6.00 Build 0)  -->
<!DOCTYPE svg PUBLIC "-//W3C//DTD SVG 1.1//EN" "http://www.w3.org/Graphics/SVG/1.1/DTD/svg11.dtd">
<svg version="1.1" id="Layer_1" xmlns="http://www.w3.org/2000/svg" xmlns:xlink="http://www.w3.org/1999/xlink" x="0px" y="0px"
	 width="742.735px" height="398.16px" viewBox="0 0 742.735 398.16" enable-background="new 0 0 742.735 398.16"
	 xml:space="preserve">
<path opacity="0.8" fill="#105C74" d="M665.204,353.451c-71.359,59.342-148.977,53.374-223.722,18.306
	c-63.955-30.009-106.738-77.977-175.924-77.304c-68.974,0.671-133.443,34.611-196.477,3.751
	c-84.512-41.377-79.392-135.536-48.353-205.438C63.765-4.153,148.623-19.253,226.49,21.174
	c64.438,33.452,118.092,35.704,212.422,11.616c69.876-17.844,136.541-50.725,213.047-20.527
	C738.727,46.51,797.188,243.697,665.204,353.451"/>
<path opacity="0.8" fill="#085066" d="M639.489,328.55c-66.226,52.732-134.029,54.492-203.384,23.347
	c-59.342-26.651-123.64-71.109-187.84-70.501c-64.003,0.605-94.774,26.007-153.26-1.403C16.59,243.243,6.732,163.504,35.545,101.396
	C75.493,15.28,167.087,1.344,239.337,37.25c59.788,29.713,106.897,34.908,194.432,13.493
	c64.843-15.863,127.852-54.432,198.84-27.616C713.119,53.542,761.978,231.021,639.489,328.55"/>
<path opacity="0.8" fill="#00465A" d="M619.11,326.511c-61.677,49.109-120.002,38.438-184.592,9.433
	c-55.266-24.82-109.964-65.189-169.754-64.622c-59.606,0.563-110.005,25.403-164.473-0.123
	c-73.029-34.224-82.209-108.484-55.376-166.326c37.204-80.199,122.506-93.177,189.791-59.738
	c55.682,27.671,112.087,59.015,193.608,39.07c60.389-14.773,109.999-59.214,176.109-34.24
	C679.404,78.289,733.183,235.681,619.11,326.511"/>
</svg>
