<?xml version="1.0" encoding="utf-8"?>
<!-- Generator: Adobe Illustrator 23.0.0, SVG Export Plug-In . SVG Version: 6.00 Build 0)  -->
<svg version="1.1" id="Layer_1" xmlns="http://www.w3.org/2000/svg" xmlns:xlink="http://www.w3.org/1999/xlink" x="0px" y="0px"
	 width="40px" height="40px" viewBox="0 0 40 40" style="enable-background:new 0 0 40 40;" xml:space="preserve">
<style type="text/css">
	.st0{fill:#015543;}
</style>
<g>
	<g>
		<polygon class="st0" points="29.5,9.4 29.5,19.6 34.7,14.4 		"/>
	</g>
	<g>
		<path class="st0" d="M20.7,0.4c-0.6-0.6-1.6-0.6-2.2,0l-2.2,2.2H23L20.7,0.4z"/>
	</g>
	<g>
		<polygon class="st0" points="9.7,9.4 5.3,13.8 4.5,14.4 9.7,19.6 		"/>
	</g>
	<g>
		<polygon class="st0" points="13.1,25.1 13.1,24.9 4.4,16.3 4.4,16.4 4.4,16.8 4.4,17.3 4.4,33.6 		"/>
	</g>
	<g>
		<path class="st0" d="M32.8,33.5L32.8,33.5L20.7,21.3c-0.6-0.6-1.6-0.6-2.2,0L6.1,33.8l0,0l-0.7,0.7h28.3l-0.3-0.3L32.8,33.5z"/>
	</g>
	<g>
		<polygon class="st0" points="26.2,24.9 26.3,25.1 26.3,25.1 34.8,33.6 34.8,16.8 34.8,16.4 34.8,16.1 		"/>
	</g>
	<g>
		<path class="st0" d="M17.7,20.5c0.6-0.6,1.3-0.9,2-0.9s1.4,0.3,2,0.9l0.4,0.4l3,3l3-3v-13l-4-4H11v17l3,3L17.7,20.5z M15.1,7.9
			h9.2v1.3h-9.2C15.1,9.3,15.1,7.9,15.1,7.9z M15.1,12.1h6.6v1.3h-6.6V12.1z M15.1,15.9h9.2v1.4h-9.2C15.1,17.3,15.1,15.9,15.1,15.9
			z"/>
	</g>
</g>
</svg>
