<?xml version="1.0" encoding="utf-8"?>
<!-- Generator: Adobe Illustrator 23.0.5, SVG Export Plug-In . SVG Version: 6.00 Build 0)  -->
<svg version="1.1" id="Layer_1" xmlns="http://www.w3.org/2000/svg" xmlns:xlink="http://www.w3.org/1999/xlink" x="0px" y="0px"
	 width="300px" height="120px" viewBox="0 0 300 120" style="enable-background:new 0 0 300 120;" xml:space="preserve">
<style type="text/css">
	.st0{fill:url(#SVGID_1_);}
	.st1{fill:url(#SVGID_2_);}
	.st2{fill:url(#SVGID_3_);}
	.st3{fill:url(#SVGID_4_);}
	.st4{fill:url(#SVGID_5_);}
	.st5{fill:url(#SVGID_6_);}
	.st6{fill:url(#SVGID_7_);}
	.st7{fill:url(#SVGID_8_);}
	.st8{fill:url(#SVGID_9_);}
	.st9{fill:url(#SVGID_10_);}
	.st10{fill:url(#SVGID_11_);}
	.st11{fill:url(#SVGID_12_);}
	.st12{fill:url(#SVGID_13_);}
	.st13{fill:url(#SVGID_14_);}
	.st14{fill:url(#SVGID_15_);}
	.st15{fill:url(#SVGID_16_);}
	.st16{fill:url(#SVGID_17_);}
	.st17{fill:url(#SVGID_18_);}
	.st18{fill:url(#SVGID_19_);}
	.st19{fill:url(#SVGID_20_);}
	.st20{fill:url(#SVGID_21_);}
	.st21{fill:url(#SVGID_22_);}
</style>
<g>
	<linearGradient id="SVGID_1_" gradientUnits="userSpaceOnUse" x1="105.707" y1="81.5114" x2="105.707" y2="4.1968">
		<stop  offset="0" style="stop-color:#8F5D3C"/>
		<stop  offset="0.1013" style="stop-color:#95623D"/>
		<stop  offset="0.2356" style="stop-color:#A6713F"/>
		<stop  offset="0.3877" style="stop-color:#C18843"/>
		<stop  offset="0.5" style="stop-color:#DA9E47"/>
		<stop  offset="0.5262" style="stop-color:#DEA54E"/>
		<stop  offset="0.6311" style="stop-color:#EDBE64"/>
		<stop  offset="0.7414" style="stop-color:#F7CF74"/>
		<stop  offset="0.8598" style="stop-color:#FDDA7D"/>
		<stop  offset="1" style="stop-color:#FFDD80"/>
	</linearGradient>
	<polygon class="st0" points="79.7,81.1 74,81.1 78,79.3 78,4 135.7,51.7 135.7,5.3 137.4,5.3 137.4,55.3 79.7,7.7 	"/>
</g>
<g>
	<linearGradient id="SVGID_2_" gradientUnits="userSpaceOnUse" x1="120.3076" y1="81.5114" x2="120.3076" y2="4.1968">
		<stop  offset="0" style="stop-color:#8F5D3C"/>
		<stop  offset="0.1013" style="stop-color:#95623D"/>
		<stop  offset="0.2356" style="stop-color:#A6713F"/>
		<stop  offset="0.3877" style="stop-color:#C18843"/>
		<stop  offset="0.5" style="stop-color:#DA9E47"/>
		<stop  offset="0.5262" style="stop-color:#DEA54E"/>
		<stop  offset="0.6311" style="stop-color:#EDBE64"/>
		<stop  offset="0.7414" style="stop-color:#F7CF74"/>
		<stop  offset="0.8598" style="stop-color:#FDDA7D"/>
		<stop  offset="1" style="stop-color:#FFDD80"/>
	</linearGradient>
	<polygon class="st1" points="150,82 92.3,34.6 92.3,81.1 90.6,81.1 90.6,30.9 148.3,78.4 148.3,5.3 150,5.3 	"/>
</g>
<g>
	<linearGradient id="SVGID_3_" gradientUnits="userSpaceOnUse" x1="114.3348" y1="81.5114" x2="114.3348" y2="4.1968">
		<stop  offset="0" style="stop-color:#8F5D3C"/>
		<stop  offset="0.1013" style="stop-color:#95623D"/>
		<stop  offset="0.2356" style="stop-color:#A6713F"/>
		<stop  offset="0.3877" style="stop-color:#C18843"/>
		<stop  offset="0.5" style="stop-color:#DA9E47"/>
		<stop  offset="0.5262" style="stop-color:#DEA54E"/>
		<stop  offset="0.6311" style="stop-color:#EDBE64"/>
		<stop  offset="0.7414" style="stop-color:#F7CF74"/>
		<stop  offset="0.8598" style="stop-color:#FDDA7D"/>
		<stop  offset="1" style="stop-color:#FFDD80"/>
	</linearGradient>
	<polygon class="st2" points="86.3,81.1 84.6,81.1 84.6,17 142.3,64.6 142.3,5.3 144.1,5.3 144.1,68.3 86.3,20.7 	"/>
</g>
<g>
	<linearGradient id="SVGID_4_" gradientUnits="userSpaceOnUse" x1="183.206" y1="81.5114" x2="183.206" y2="4.1968">
		<stop  offset="0" style="stop-color:#8F5D3C"/>
		<stop  offset="0.1013" style="stop-color:#95623D"/>
		<stop  offset="0.2356" style="stop-color:#A6713F"/>
		<stop  offset="0.3877" style="stop-color:#C18843"/>
		<stop  offset="0.5" style="stop-color:#DA9E47"/>
		<stop  offset="0.5262" style="stop-color:#DEA54E"/>
		<stop  offset="0.6311" style="stop-color:#EDBE64"/>
		<stop  offset="0.7414" style="stop-color:#F7CF74"/>
		<stop  offset="0.8598" style="stop-color:#FDDA7D"/>
		<stop  offset="1" style="stop-color:#FFDD80"/>
	</linearGradient>
	<polygon class="st3" points="163.4,81.1 161.7,81.1 161.7,47 204.7,47 204.7,80.2 203,80.2 203,48.7 163.4,48.7 	"/>
</g>
<g>
	<linearGradient id="SVGID_5_" gradientUnits="userSpaceOnUse" x1="220.1399" y1="81.5114" x2="220.1399" y2="4.1968">
		<stop  offset="0" style="stop-color:#8F5D3C"/>
		<stop  offset="0.1013" style="stop-color:#95623D"/>
		<stop  offset="0.2356" style="stop-color:#A6713F"/>
		<stop  offset="0.3877" style="stop-color:#C18843"/>
		<stop  offset="0.5" style="stop-color:#DA9E47"/>
		<stop  offset="0.5262" style="stop-color:#DEA54E"/>
		<stop  offset="0.6311" style="stop-color:#EDBE64"/>
		<stop  offset="0.7414" style="stop-color:#F7CF74"/>
		<stop  offset="0.8598" style="stop-color:#FDDA7D"/>
		<stop  offset="1" style="stop-color:#FFDD80"/>
	</linearGradient>
	<polygon class="st4" points="222.8,81.1 217.5,81.1 217.5,5.3 222.8,5.3 219.2,7 219.2,79.3 	"/>
</g>
<g>
	<linearGradient id="SVGID_6_" gradientUnits="userSpaceOnUse" x1="183.206" y1="81.5114" x2="183.206" y2="4.1968">
		<stop  offset="0" style="stop-color:#8F5D3C"/>
		<stop  offset="0.1013" style="stop-color:#95623D"/>
		<stop  offset="0.2356" style="stop-color:#A6713F"/>
		<stop  offset="0.3877" style="stop-color:#C18843"/>
		<stop  offset="0.5" style="stop-color:#DA9E47"/>
		<stop  offset="0.5262" style="stop-color:#DEA54E"/>
		<stop  offset="0.6311" style="stop-color:#EDBE64"/>
		<stop  offset="0.7414" style="stop-color:#F7CF74"/>
		<stop  offset="0.8598" style="stop-color:#FDDA7D"/>
		<stop  offset="1" style="stop-color:#FFDD80"/>
	</linearGradient>
	<polygon class="st5" points="204.7,38 161.7,38 161.7,5.3 163.4,5.3 163.4,36.3 203,36.3 203,5.3 204.7,5.3 	"/>
</g>
<g>
	<linearGradient id="SVGID_7_" gradientUnits="userSpaceOnUse" x1="183.206" y1="81.5114" x2="183.206" y2="4.1968">
		<stop  offset="0" style="stop-color:#8F5D3C"/>
		<stop  offset="0.1013" style="stop-color:#95623D"/>
		<stop  offset="0.2356" style="stop-color:#A6713F"/>
		<stop  offset="0.3877" style="stop-color:#C18843"/>
		<stop  offset="0.5" style="stop-color:#DA9E47"/>
		<stop  offset="0.5262" style="stop-color:#DEA54E"/>
		<stop  offset="0.6311" style="stop-color:#EDBE64"/>
		<stop  offset="0.7414" style="stop-color:#F7CF74"/>
		<stop  offset="0.8598" style="stop-color:#FDDA7D"/>
		<stop  offset="1" style="stop-color:#FFDD80"/>
	</linearGradient>
	<polygon class="st6" points="156.1,81.1 154.4,81.1 154.4,42 212,42 212,80.2 210.3,80.2 210.3,43.8 156.1,43.8 	"/>
</g>
<g>
	<linearGradient id="SVGID_8_" gradientUnits="userSpaceOnUse" x1="183.206" y1="81.5114" x2="183.206" y2="4.1968">
		<stop  offset="0" style="stop-color:#8F5D3C"/>
		<stop  offset="0.1013" style="stop-color:#95623D"/>
		<stop  offset="0.2356" style="stop-color:#A6713F"/>
		<stop  offset="0.3877" style="stop-color:#C18843"/>
		<stop  offset="0.5" style="stop-color:#DA9E47"/>
		<stop  offset="0.5262" style="stop-color:#DEA54E"/>
		<stop  offset="0.6311" style="stop-color:#EDBE64"/>
		<stop  offset="0.7414" style="stop-color:#F7CF74"/>
		<stop  offset="0.8598" style="stop-color:#FDDA7D"/>
		<stop  offset="1" style="stop-color:#FFDD80"/>
	</linearGradient>
	<polygon class="st7" points="212,43.8 154.4,43.8 154.4,5.3 156.1,5.3 156.1,42 210.3,42 210.3,5.3 212,5.3 	"/>
</g>
<linearGradient id="SVGID_9_" gradientUnits="userSpaceOnUse" x1="47.1724" y1="107.1373" x2="283.386" y2="118.3856">
	<stop  offset="0.1044" style="stop-color:#DA9E47"/>
	<stop  offset="0.1204" style="stop-color:#DEA54E"/>
	<stop  offset="0.1843" style="stop-color:#EDBE64"/>
	<stop  offset="0.2515" style="stop-color:#F7CF74"/>
	<stop  offset="0.3235" style="stop-color:#FDDA7D"/>
	<stop  offset="0.4089" style="stop-color:#FFDD80"/>
	<stop  offset="0.5188" style="stop-color:#DEB66B"/>
	<stop  offset="0.6364" style="stop-color:#C29458"/>
	<stop  offset="0.7483" style="stop-color:#AD7C4A"/>
	<stop  offset="0.8509" style="stop-color:#A06D42"/>
	<stop  offset="0.9356" style="stop-color:#9C683F"/>
</linearGradient>
<path class="st8" d="M16.5,95.8v-0.6h5.6v0.6c-0.9,0-1.5,0.2-1.9,0.7c-0.3,0.5-0.5,1.3-0.5,2.5v16.7h-0.6L6,97.9v14.5
	c0,1,0.2,1.7,0.6,2.2c0.4,0.4,1,0.7,1.9,0.7v0.6H2.8v-0.6c0.9,0,1.5-0.3,1.8-0.8c0.3-0.5,0.5-1.4,0.5-2.7v-12c0-1.3-0.2-2.2-0.6-2.8
	c-0.4-0.6-1.1-0.9-2.1-1v-0.6h4.8l11.6,16v-12c0-1.3-0.2-2.1-0.5-2.6C18,96,17.4,95.8,16.5,95.8z"/>
<linearGradient id="SVGID_10_" gradientUnits="userSpaceOnUse" x1="47.2214" y1="106.1089" x2="283.435" y2="117.3571">
	<stop  offset="0.1044" style="stop-color:#DA9E47"/>
	<stop  offset="0.1204" style="stop-color:#DEA54E"/>
	<stop  offset="0.1843" style="stop-color:#EDBE64"/>
	<stop  offset="0.2515" style="stop-color:#F7CF74"/>
	<stop  offset="0.3235" style="stop-color:#FDDA7D"/>
	<stop  offset="0.4089" style="stop-color:#FFDD80"/>
	<stop  offset="0.5188" style="stop-color:#DEB66B"/>
	<stop  offset="0.6364" style="stop-color:#C29458"/>
	<stop  offset="0.7483" style="stop-color:#AD7C4A"/>
	<stop  offset="0.8509" style="stop-color:#A06D42"/>
	<stop  offset="0.9356" style="stop-color:#9C683F"/>
</linearGradient>
<path class="st9" d="M39.2,111.9v-6H29.1v6c0,1.2,0.2,2.1,0.5,2.5c0.3,0.5,0.9,0.7,1.7,0.7v0.6h-6.7v-0.6c0.8,0,1.4-0.2,1.7-0.7
	c0.3-0.5,0.4-1.3,0.4-2.5V99.1c0-1.3-0.2-2.1-0.5-2.6c-0.3-0.5-0.9-0.7-1.7-0.7v-0.6h6.7v0.6c-0.8,0-1.4,0.2-1.7,0.7
	c-0.3,0.5-0.5,1.3-0.5,2.5v5.9h10.1v-5.9c0-1.3-0.1-2.1-0.4-2.6c-0.3-0.5-0.8-0.7-1.6-0.7v-0.6h6.6v0.6c-0.8,0-1.3,0.2-1.6,0.7
	c-0.3,0.5-0.5,1.3-0.5,2.6v12.8c0,1.2,0.2,2.1,0.5,2.6c0.3,0.5,0.9,0.7,1.6,0.7v0.6h-6.6v-0.6c0.8,0,1.4-0.2,1.7-0.7
	C39,114,39.2,113.1,39.2,111.9z"/>
<linearGradient id="SVGID_11_" gradientUnits="userSpaceOnUse" x1="47.2726" y1="105.0342" x2="283.4862" y2="116.2824">
	<stop  offset="0.1044" style="stop-color:#DA9E47"/>
	<stop  offset="0.1204" style="stop-color:#DEA54E"/>
	<stop  offset="0.1843" style="stop-color:#EDBE64"/>
	<stop  offset="0.2515" style="stop-color:#F7CF74"/>
	<stop  offset="0.3235" style="stop-color:#FDDA7D"/>
	<stop  offset="0.4089" style="stop-color:#FFDD80"/>
	<stop  offset="0.5188" style="stop-color:#DEB66B"/>
	<stop  offset="0.6364" style="stop-color:#C29458"/>
	<stop  offset="0.7483" style="stop-color:#AD7C4A"/>
	<stop  offset="0.8509" style="stop-color:#A06D42"/>
	<stop  offset="0.9356" style="stop-color:#9C683F"/>
</linearGradient>
<path class="st10" d="M46.8,105.4c0-3.1,0.9-5.6,2.8-7.6c1.9-2,4.3-3.1,7.1-3.1c2.7,0,5.1,1,7,3.1c1.9,2.1,2.9,4.6,2.9,7.6
	c0,3.1-1,5.6-2.9,7.7s-4.3,3.2-7,3.2c-2.8,0-5.1-1.1-7-3.2C47.8,111,46.8,108.4,46.8,105.4z M49.7,105.4c0,3,0.6,5.4,1.9,7.3
	c1.3,1.9,3,2.8,5.1,2.8c2.1,0,3.8-0.9,5.1-2.8c1.3-1.9,2-4.3,2-7.1c0-3-0.6-5.5-1.9-7.3c-1.3-1.8-2.9-2.8-5-2.8
	c-2.2,0-3.9,0.9-5.2,2.7C50.3,100,49.7,102.4,49.7,105.4z"/>
<linearGradient id="SVGID_12_" gradientUnits="userSpaceOnUse" x1="47.3234" y1="103.9655" x2="283.5371" y2="115.2138">
	<stop  offset="0.1044" style="stop-color:#DA9E47"/>
	<stop  offset="0.1204" style="stop-color:#DEA54E"/>
	<stop  offset="0.1843" style="stop-color:#EDBE64"/>
	<stop  offset="0.2515" style="stop-color:#F7CF74"/>
	<stop  offset="0.3235" style="stop-color:#FDDA7D"/>
	<stop  offset="0.4089" style="stop-color:#FFDD80"/>
	<stop  offset="0.5188" style="stop-color:#DEB66B"/>
	<stop  offset="0.6364" style="stop-color:#C29458"/>
	<stop  offset="0.7483" style="stop-color:#AD7C4A"/>
	<stop  offset="0.8509" style="stop-color:#A06D42"/>
	<stop  offset="0.9356" style="stop-color:#9C683F"/>
</linearGradient>
<path class="st11" d="M83.3,95.8v-0.6h5.6v0.6c-0.9,0-1.5,0.2-1.9,0.7c-0.3,0.5-0.5,1.3-0.5,2.5v16.7h-0.6L72.8,97.9v14.5
	c0,1,0.2,1.7,0.6,2.2c0.4,0.4,1,0.7,1.9,0.7v0.6h-5.6v-0.6c0.9,0,1.5-0.3,1.8-0.8c0.3-0.5,0.5-1.4,0.5-2.7v-12
	c0-1.3-0.2-2.2-0.6-2.8c-0.4-0.6-1.1-0.9-2.1-1v-0.6h4.8l11.6,16v-12c0-1.3-0.2-2.1-0.5-2.6C84.7,96,84.1,95.8,83.3,95.8z"/>
<linearGradient id="SVGID_13_" gradientUnits="userSpaceOnUse" x1="47.3889" y1="102.591" x2="283.6025" y2="113.8392">
	<stop  offset="0.1044" style="stop-color:#DA9E47"/>
	<stop  offset="0.1204" style="stop-color:#DEA54E"/>
	<stop  offset="0.1843" style="stop-color:#EDBE64"/>
	<stop  offset="0.2515" style="stop-color:#F7CF74"/>
	<stop  offset="0.3235" style="stop-color:#FDDA7D"/>
	<stop  offset="0.4089" style="stop-color:#FFDD80"/>
	<stop  offset="0.5188" style="stop-color:#DEB66B"/>
	<stop  offset="0.6364" style="stop-color:#C29458"/>
	<stop  offset="0.7483" style="stop-color:#AD7C4A"/>
	<stop  offset="0.8509" style="stop-color:#A06D42"/>
	<stop  offset="0.9356" style="stop-color:#9C683F"/>
</linearGradient>
<path class="st12" d="M113.2,111.9v-6h-10.1v6c0,1.2,0.2,2.1,0.5,2.5c0.3,0.5,0.9,0.7,1.7,0.7v0.6h-6.7v-0.6c0.8,0,1.4-0.2,1.7-0.7
	c0.3-0.5,0.4-1.3,0.4-2.5V99.1c0-1.3-0.2-2.1-0.5-2.6c-0.3-0.5-0.9-0.7-1.7-0.7v-0.6h6.7v0.6c-0.8,0-1.4,0.2-1.7,0.7
	c-0.3,0.5-0.5,1.3-0.5,2.5v5.9h10.1v-5.9c0-1.3-0.1-2.1-0.4-2.6c-0.3-0.5-0.8-0.7-1.6-0.7v-0.6h6.6v0.6c-0.8,0-1.3,0.2-1.6,0.7
	c-0.3,0.5-0.5,1.3-0.5,2.6v12.8c0,1.2,0.2,2.1,0.5,2.6c0.3,0.5,0.9,0.7,1.6,0.7v0.6h-6.6v-0.6c0.8,0,1.4-0.2,1.7-0.7
	C113.1,114,113.2,113.1,113.2,111.9z"/>
<linearGradient id="SVGID_14_" gradientUnits="userSpaceOnUse" x1="47.4401" y1="101.5163" x2="283.6537" y2="112.7645">
	<stop  offset="0.1044" style="stop-color:#DA9E47"/>
	<stop  offset="0.1204" style="stop-color:#DEA54E"/>
	<stop  offset="0.1843" style="stop-color:#EDBE64"/>
	<stop  offset="0.2515" style="stop-color:#F7CF74"/>
	<stop  offset="0.3235" style="stop-color:#FDDA7D"/>
	<stop  offset="0.4089" style="stop-color:#FFDD80"/>
	<stop  offset="0.5188" style="stop-color:#DEB66B"/>
	<stop  offset="0.6364" style="stop-color:#C29458"/>
	<stop  offset="0.7483" style="stop-color:#AD7C4A"/>
	<stop  offset="0.8509" style="stop-color:#A06D42"/>
	<stop  offset="0.9356" style="stop-color:#9C683F"/>
</linearGradient>
<path class="st13" d="M120.9,105.4c0-3.1,0.9-5.6,2.8-7.6c1.9-2,4.3-3.1,7.1-3.1c2.7,0,5.1,1,7,3.1c1.9,2.1,2.9,4.6,2.9,7.6
	c0,3.1-1,5.6-2.9,7.7c-1.9,2.1-4.3,3.2-7,3.2c-2.8,0-5.1-1.1-7-3.2C121.8,111,120.9,108.4,120.9,105.4z M123.7,105.4
	c0,3,0.6,5.4,1.9,7.3c1.3,1.9,3,2.8,5.1,2.8c2.1,0,3.8-0.9,5.1-2.8c1.3-1.9,2-4.3,2-7.1c0-3-0.6-5.5-1.9-7.3c-1.3-1.8-2.9-2.8-5-2.8
	c-2.2,0-3.9,0.9-5.2,2.7C124.4,100,123.7,102.4,123.7,105.4z"/>
<linearGradient id="SVGID_15_" gradientUnits="userSpaceOnUse" x1="47.4762" y1="100.757" x2="283.6898" y2="112.0052">
	<stop  offset="0.1044" style="stop-color:#DA9E47"/>
	<stop  offset="0.1204" style="stop-color:#DEA54E"/>
	<stop  offset="0.1843" style="stop-color:#EDBE64"/>
	<stop  offset="0.2515" style="stop-color:#F7CF74"/>
	<stop  offset="0.3235" style="stop-color:#FDDA7D"/>
	<stop  offset="0.4089" style="stop-color:#FFDD80"/>
	<stop  offset="0.5188" style="stop-color:#DEB66B"/>
	<stop  offset="0.6364" style="stop-color:#C29458"/>
	<stop  offset="0.7483" style="stop-color:#AD7C4A"/>
	<stop  offset="0.8509" style="stop-color:#A06D42"/>
	<stop  offset="0.9356" style="stop-color:#9C683F"/>
</linearGradient>
<path class="st14" d="M150.1,95.2v0.6c-0.8,0-1.3,0.2-1.6,0.7c-0.3,0.5-0.5,1.3-0.5,2.6v12.8c0,1.2,0.2,2.1,0.5,2.6
	c0.3,0.5,0.9,0.7,1.6,0.7v0.6h-6.7v-0.6c0.8,0,1.4-0.2,1.7-0.7c0.3-0.5,0.4-1.3,0.4-2.6V99.1c0-1.3-0.1-2.1-0.4-2.6
	c-0.3-0.5-0.8-0.7-1.7-0.7v-0.6H150.1z"/>
<linearGradient id="SVGID_16_" gradientUnits="userSpaceOnUse" x1="47.5265" y1="99.7022" x2="283.7401" y2="110.9504">
	<stop  offset="0.1044" style="stop-color:#DA9E47"/>
	<stop  offset="0.1204" style="stop-color:#DEA54E"/>
	<stop  offset="0.1843" style="stop-color:#EDBE64"/>
	<stop  offset="0.2515" style="stop-color:#F7CF74"/>
	<stop  offset="0.3235" style="stop-color:#FDDA7D"/>
	<stop  offset="0.4089" style="stop-color:#FFDD80"/>
	<stop  offset="0.5188" style="stop-color:#DEB66B"/>
	<stop  offset="0.6364" style="stop-color:#C29458"/>
	<stop  offset="0.7483" style="stop-color:#AD7C4A"/>
	<stop  offset="0.8509" style="stop-color:#A06D42"/>
	<stop  offset="0.9356" style="stop-color:#9C683F"/>
</linearGradient>
<path class="st15" d="M173,95.8v-0.6h5.6v0.6c-0.9,0-1.5,0.2-1.9,0.7c-0.3,0.5-0.5,1.3-0.5,2.5v16.7h-0.6l-13.1-17.9v14.5
	c0,1,0.2,1.7,0.6,2.2c0.4,0.4,1,0.7,1.9,0.7v0.6h-5.6v-0.6c0.9,0,1.5-0.3,1.8-0.8c0.3-0.5,0.5-1.4,0.5-2.7v-12
	c0-1.3-0.2-2.2-0.6-2.8c-0.4-0.6-1.1-0.9-2.1-1v-0.6h4.8l11.6,16v-12c0-1.3-0.2-2.1-0.5-2.6C174.5,96,173.9,95.8,173,95.8z"/>
<linearGradient id="SVGID_17_" gradientUnits="userSpaceOnUse" x1="47.5687" y1="98.816" x2="283.7823" y2="110.0642">
	<stop  offset="0.1044" style="stop-color:#DA9E47"/>
	<stop  offset="0.1204" style="stop-color:#DEA54E"/>
	<stop  offset="0.1843" style="stop-color:#EDBE64"/>
	<stop  offset="0.2515" style="stop-color:#F7CF74"/>
	<stop  offset="0.3235" style="stop-color:#FDDA7D"/>
	<stop  offset="0.4089" style="stop-color:#FFDD80"/>
	<stop  offset="0.5188" style="stop-color:#DEB66B"/>
	<stop  offset="0.6364" style="stop-color:#C29458"/>
	<stop  offset="0.7483" style="stop-color:#AD7C4A"/>
	<stop  offset="0.8509" style="stop-color:#A06D42"/>
	<stop  offset="0.9356" style="stop-color:#9C683F"/>
</linearGradient>
<path class="st16" d="M192.7,103h0.6v5h-0.6c-0.2-0.9-0.4-1.4-0.7-1.6c-0.3-0.2-0.9-0.3-1.9-0.3h-4.6v7.4c0,0.5,0.1,0.9,0.3,1.1
	c0.2,0.2,0.6,0.3,1.1,0.3h3.2c1.2,0,2-0.1,2.4-0.2c0.4-0.1,0.8-0.4,1.1-0.8s0.6-1,1-1.9h0.6l-0.9,3.8h-13.4v-0.6
	c0.8,0,1.4-0.2,1.7-0.7c0.3-0.5,0.4-1.3,0.4-2.5V99.1c0-1.3-0.1-2.1-0.4-2.6c-0.3-0.5-0.8-0.7-1.7-0.7v-0.6h13.4v3.4h-0.3
	c-0.2-1-0.5-1.6-0.8-2c-0.4-0.3-1.1-0.5-2.3-0.5h-5.3v8.8h5.2c0.7,0,1.2-0.1,1.4-0.4C192.4,104.3,192.6,103.8,192.7,103z"/>
<linearGradient id="SVGID_18_" gradientUnits="userSpaceOnUse" x1="47.6252" y1="97.6285" x2="283.8388" y2="108.8768">
	<stop  offset="0.1044" style="stop-color:#DA9E47"/>
	<stop  offset="0.1204" style="stop-color:#DEA54E"/>
	<stop  offset="0.1843" style="stop-color:#EDBE64"/>
	<stop  offset="0.2515" style="stop-color:#F7CF74"/>
	<stop  offset="0.3235" style="stop-color:#FDDA7D"/>
	<stop  offset="0.4089" style="stop-color:#FFDD80"/>
	<stop  offset="0.5188" style="stop-color:#DEB66B"/>
	<stop  offset="0.6364" style="stop-color:#C29458"/>
	<stop  offset="0.7483" style="stop-color:#AD7C4A"/>
	<stop  offset="0.8509" style="stop-color:#A06D42"/>
	<stop  offset="0.9356" style="stop-color:#9C683F"/>
</linearGradient>
<path class="st17" d="M225.3,95.2v0.6c-0.7,0.1-1.3,0.4-1.8,1c-0.5,0.6-1,1.7-1.5,3.2l-5.2,16.1h-0.6l-5.1-15.2l-4.9,15.2h-0.5
	l-5.7-17c-0.3-0.9-0.6-1.6-0.8-2.1c-0.2-0.5-0.5-0.8-0.8-0.9c-0.3-0.2-0.8-0.3-1.5-0.3v-0.6h6.9v0.6c-1.1,0.1-1.6,0.6-1.6,1.3
	c0,0.3,0.1,0.7,0.2,1.2l4.3,13.1l3.9-12l-0.4-1.3c-0.3-0.8-0.6-1.4-1-1.8c-0.4-0.3-0.9-0.5-1.6-0.5v-0.6h6.8v0.6
	c-1.2,0-1.8,0.4-1.8,1.2c0,0.3,0.1,0.8,0.3,1.3l4.3,13l3.8-11.5c0.3-0.9,0.5-1.7,0.5-2.3c0-1.2-0.6-1.8-1.9-1.8v-0.6H225.3z"/>
<linearGradient id="SVGID_19_" gradientUnits="userSpaceOnUse" x1="47.6999" y1="96.0597" x2="283.9135" y2="107.308">
	<stop  offset="0.1044" style="stop-color:#DA9E47"/>
	<stop  offset="0.1204" style="stop-color:#DEA54E"/>
	<stop  offset="0.1843" style="stop-color:#EDBE64"/>
	<stop  offset="0.2515" style="stop-color:#F7CF74"/>
	<stop  offset="0.3235" style="stop-color:#FDDA7D"/>
	<stop  offset="0.4089" style="stop-color:#FFDD80"/>
	<stop  offset="0.5188" style="stop-color:#DEB66B"/>
	<stop  offset="0.6364" style="stop-color:#C29458"/>
	<stop  offset="0.7483" style="stop-color:#AD7C4A"/>
	<stop  offset="0.8509" style="stop-color:#A06D42"/>
	<stop  offset="0.9356" style="stop-color:#9C683F"/>
</linearGradient>
<path class="st18" d="M251.5,94.9v6.1H251c-0.4-1.9-1.2-3.3-2.1-4.2c-1-0.9-2.3-1.4-3.9-1.4c-2.1,0-3.8,0.8-5,2.5
	c-1.2,1.7-1.8,3.9-1.8,6.7c0,3.1,0.6,5.6,2,7.4c1.3,1.9,3,2.8,5.1,2.8c2.9,0,5.1-1.5,6.5-4.5l0.5,0.5c-0.6,1.6-1.6,2.9-3,3.9
	c-1.4,1-3,1.4-4.7,1.4c-1.7,0-3.2-0.4-4.7-1.3c-1.4-0.9-2.5-2.1-3.3-3.6s-1.2-3.3-1.2-5.3c0-3.3,0.9-6,2.7-8.1
	c1.8-2.1,4.1-3.2,6.9-3.2c0.9,0,2.1,0.2,3.5,0.5c0.8,0.2,1.4,0.3,1.7,0.3c0.5,0,0.8-0.2,1-0.6H251.5z"/>
<linearGradient id="SVGID_20_" gradientUnits="userSpaceOnUse" x1="47.7265" y1="95.5004" x2="283.9402" y2="106.7487">
	<stop  offset="0.1044" style="stop-color:#DA9E47"/>
	<stop  offset="0.1204" style="stop-color:#DEA54E"/>
	<stop  offset="0.1843" style="stop-color:#EDBE64"/>
	<stop  offset="0.2515" style="stop-color:#F7CF74"/>
	<stop  offset="0.3235" style="stop-color:#FDDA7D"/>
	<stop  offset="0.4089" style="stop-color:#FFDD80"/>
	<stop  offset="0.5188" style="stop-color:#DEB66B"/>
	<stop  offset="0.6364" style="stop-color:#C29458"/>
	<stop  offset="0.7483" style="stop-color:#AD7C4A"/>
	<stop  offset="0.8509" style="stop-color:#A06D42"/>
	<stop  offset="0.9356" style="stop-color:#9C683F"/>
</linearGradient>
<path class="st19" d="M260.7,95.2v0.6c-0.8,0-1.3,0.2-1.6,0.7c-0.3,0.5-0.5,1.3-0.5,2.6v12.8c0,1.2,0.2,2.1,0.5,2.6
	c0.3,0.5,0.9,0.7,1.6,0.7v0.6h-6.7v-0.6c0.8,0,1.4-0.2,1.7-0.7c0.3-0.5,0.4-1.3,0.4-2.6V99.1c0-1.3-0.1-2.1-0.4-2.6
	c-0.3-0.5-0.8-0.7-1.7-0.7v-0.6H260.7z"/>
<linearGradient id="SVGID_21_" gradientUnits="userSpaceOnUse" x1="47.7805" y1="94.3667" x2="283.9941" y2="105.615">
	<stop  offset="0.1044" style="stop-color:#DA9E47"/>
	<stop  offset="0.1204" style="stop-color:#DEA54E"/>
	<stop  offset="0.1843" style="stop-color:#EDBE64"/>
	<stop  offset="0.2515" style="stop-color:#F7CF74"/>
	<stop  offset="0.3235" style="stop-color:#FDDA7D"/>
	<stop  offset="0.4089" style="stop-color:#FFDD80"/>
	<stop  offset="0.5188" style="stop-color:#DEB66B"/>
	<stop  offset="0.6364" style="stop-color:#C29458"/>
	<stop  offset="0.7483" style="stop-color:#AD7C4A"/>
	<stop  offset="0.8509" style="stop-color:#A06D42"/>
	<stop  offset="0.9356" style="stop-color:#9C683F"/>
</linearGradient>
<path class="st20" d="M274.7,96.2h-2.8V112c0,1.2,0.1,2.1,0.4,2.5c0.3,0.4,0.8,0.6,1.6,0.6v0.6h-6.6v-0.6c0.8,0,1.4-0.2,1.7-0.7
	c0.3-0.5,0.4-1.3,0.4-2.5V96.2h-2.7c-1.3,0-2.2,0.2-2.8,0.7c-0.6,0.5-0.9,1.2-1,2.3h-0.6v-4.7h0.6c0.5,0.5,1.4,0.8,2.8,0.8h9.7
	c1.4,0,2.4-0.3,2.9-0.8h0.6v4.7h-0.4c-0.2-1.1-0.6-1.9-1.2-2.3C276.8,96.4,275.9,96.2,274.7,96.2z"/>
<linearGradient id="SVGID_22_" gradientUnits="userSpaceOnUse" x1="47.8033" y1="93.8893" x2="284.0169" y2="105.1376">
	<stop  offset="0.1044" style="stop-color:#DA9E47"/>
	<stop  offset="0.1204" style="stop-color:#DEA54E"/>
	<stop  offset="0.1843" style="stop-color:#EDBE64"/>
	<stop  offset="0.2515" style="stop-color:#F7CF74"/>
	<stop  offset="0.3235" style="stop-color:#FDDA7D"/>
	<stop  offset="0.4089" style="stop-color:#FFDD80"/>
	<stop  offset="0.5188" style="stop-color:#DEB66B"/>
	<stop  offset="0.6364" style="stop-color:#C29458"/>
	<stop  offset="0.7483" style="stop-color:#AD7C4A"/>
	<stop  offset="0.8509" style="stop-color:#A06D42"/>
	<stop  offset="0.9356" style="stop-color:#9C683F"/>
</linearGradient>
<path class="st21" d="M294.3,98.1l-4.2,7.3v6.5c0,1.3,0.1,2.1,0.4,2.6s0.8,0.7,1.6,0.7v0.6h-6.8v-0.6c0.9,0,1.5-0.2,1.8-0.7
	c0.3-0.5,0.5-1.3,0.5-2.5v-6.5l-3.9-6.8c-0.7-1.1-1.2-1.9-1.6-2.2c-0.4-0.4-1-0.5-1.7-0.6v-0.6h7.3v0.6c-1.3,0-1.9,0.3-1.9,1
	c0,0.3,0.1,0.7,0.4,1.1l3.7,6.2l2.9-5.2c0.4-0.8,0.6-1.4,0.6-2c0-0.8-0.4-1.1-1.2-1.1v-0.6h5.1v0.6c-0.7,0-1.2,0.2-1.6,0.5
	C295.3,96.6,294.8,97.2,294.3,98.1z"/>
</svg>
