<?xml version="1.0" encoding="utf-8"?>
<!-- Generator: Adobe Illustrator 23.0.5, SVG Export Plug-In . SVG Version: 6.00 Build 0)  -->
<svg version="1.1" id="Layer_1" xmlns="http://www.w3.org/2000/svg" xmlns:xlink="http://www.w3.org/1999/xlink" x="0px" y="0px"
	 width="180px" height="180px" viewBox="0 0 180 180" style="enable-background:new 0 0 180 180;" xml:space="preserve">
<style type="text/css">
	.st0{fill:url(#SVGID_1_);}
</style>
<radialGradient id="SVGID_1_" cx="79.8338" cy="91.7744" r="97.2907" gradientTransform="matrix(1.0249 0 0 -1.0249 8.1784 184.0596)" gradientUnits="userSpaceOnUse">
	<stop  offset="0" style="stop-color:#FFDE77"/>
	<stop  offset="0.3315" style="stop-color:#FDDB75"/>
	<stop  offset="0.5308" style="stop-color:#F7D36D"/>
	<stop  offset="0.6952" style="stop-color:#ECC55F"/>
	<stop  offset="0.8405" style="stop-color:#DDB14B"/>
	<stop  offset="0.9721" style="stop-color:#CA9732"/>
	<stop  offset="1" style="stop-color:#C5902C"/>
</radialGradient>
<circle class="st0" cx="90" cy="90" r="90"/>
<g>
	<g>
		<polygon points="58.1,96.1 55.4,96.1 57.3,95.3 57.3,59.7 84.6,82.2 84.6,60.3 85.4,60.3 85.4,83.9 58.1,61.5 		"/>
	</g>
	<g>
		<polygon points="91.3,96.6 64.1,74.2 64.1,96.1 63.3,96.1 63.3,72.4 90.5,94.8 90.5,60.3 91.3,60.3 		"/>
	</g>
	<g>
		<polygon points="61.3,96.1 60.4,96.1 60.4,65.9 87.7,88.3 87.7,60.3 88.5,60.3 88.5,90.1 61.3,67.6 		"/>
	</g>
	<g>
		<polygon points="97.7,96.1 96.9,96.1 96.9,80 117.2,80 117.2,95.7 116.4,95.7 116.4,80.8 97.7,80.8 		"/>
	</g>
	<g>
		<polygon points="125.7,96.1 123.2,96.1 123.2,60.3 125.7,60.3 124,61.1 124,95.3 		"/>
	</g>
	<g>
		<polygon points="117.2,75.8 96.9,75.8 96.9,60.3 97.7,60.3 97.7,75 116.4,75 116.4,60.3 117.2,60.3 		"/>
	</g>
	<g>
		<polygon points="94.2,96.1 93.4,96.1 93.4,77.7 120.6,77.7 120.6,95.7 119.8,95.7 119.8,78.5 94.2,78.5 		"/>
	</g>
	<g>
		<polygon points="120.6,78.5 93.4,78.5 93.4,60.3 94.2,60.3 94.2,77.7 119.8,77.7 119.8,60.3 120.6,60.3 		"/>
	</g>
	<path d="M28.3,103.1v-0.3h2.6v0.3c-0.4,0-0.7,0.1-0.9,0.3c-0.2,0.2-0.2,0.6-0.2,1.2v7.9h-0.3l-6.2-8.5v6.8c0,0.5,0.1,0.8,0.3,1
		c0.2,0.2,0.5,0.3,0.9,0.3v0.3h-2.7v-0.3c0.4,0,0.7-0.1,0.9-0.4c0.1-0.2,0.2-0.7,0.2-1.3v-5.7c0-0.6-0.1-1.1-0.3-1.3
		c-0.2-0.3-0.5-0.4-1-0.5v-0.3h2.2l5.5,7.6v-5.7c0-0.6-0.1-1-0.2-1.2C29,103.2,28.7,103.1,28.3,103.1z"/>
	<path d="M39,110.7v-2.8h-4.8v2.8c0,0.6,0.1,1,0.2,1.2c0.1,0.2,0.4,0.3,0.8,0.3v0.3H32v-0.3c0.4,0,0.6-0.1,0.8-0.3
		c0.1-0.2,0.2-0.6,0.2-1.2v-6.1c0-0.6-0.1-1-0.2-1.2c-0.1-0.2-0.4-0.3-0.8-0.3v-0.3h3.2v0.3c-0.4,0-0.6,0.1-0.8,0.4
		s-0.2,0.6-0.2,1.2v2.8H39v-2.8c0-0.6-0.1-1-0.2-1.2c-0.1-0.2-0.4-0.3-0.8-0.3v-0.3h3.1v0.3c-0.4,0-0.6,0.1-0.8,0.3
		c-0.1,0.2-0.2,0.6-0.2,1.2v6.1c0,0.6,0.1,1,0.2,1.2s0.4,0.3,0.8,0.3v0.3H38v-0.3c0.4,0,0.6-0.1,0.8-0.3
		C38.9,111.7,39,111.3,39,110.7z"/>
	<path d="M42.6,107.6c0-1.4,0.4-2.6,1.3-3.6c0.9-1,2-1.4,3.4-1.4c1.3,0,2.4,0.5,3.3,1.5c0.9,1,1.3,2.2,1.3,3.6
		c0,1.4-0.5,2.7-1.4,3.7c-0.9,1-2,1.5-3.3,1.5c-1.3,0-2.4-0.5-3.3-1.5C43,110.3,42.6,109,42.6,107.6z M43.9,107.6
		c0,1.4,0.3,2.6,0.9,3.4c0.6,0.9,1.4,1.3,2.4,1.3c1,0,1.8-0.4,2.4-1.3c0.6-0.9,0.9-2,0.9-3.3c0-1.4-0.3-2.6-0.9-3.5
		c-0.6-0.9-1.4-1.3-2.4-1.3c-1,0-1.8,0.4-2.5,1.3C44.2,105.1,43.9,106.2,43.9,107.6z"/>
	<path d="M59.8,103.1v-0.3h2.6v0.3c-0.4,0-0.7,0.1-0.9,0.3c-0.2,0.2-0.2,0.6-0.2,1.2v7.9h-0.3l-6.2-8.5v6.8c0,0.5,0.1,0.8,0.3,1
		c0.2,0.2,0.5,0.3,0.9,0.3v0.3h-2.7v-0.3c0.4,0,0.7-0.1,0.9-0.4c0.1-0.2,0.2-0.7,0.2-1.3v-5.7c0-0.6-0.1-1.1-0.3-1.3
		c-0.2-0.3-0.5-0.4-1-0.5v-0.3h2.2l5.5,7.6v-5.7c0-0.6-0.1-1-0.2-1.2C60.5,103.2,60.2,103.1,59.8,103.1z"/>
	<path d="M73.9,110.7v-2.8h-4.8v2.8c0,0.6,0.1,1,0.2,1.2c0.1,0.2,0.4,0.3,0.8,0.3v0.3H67v-0.3c0.4,0,0.6-0.1,0.8-0.3
		c0.1-0.2,0.2-0.6,0.2-1.2v-6.1c0-0.6-0.1-1-0.2-1.2c-0.1-0.2-0.4-0.3-0.8-0.3v-0.3h3.2v0.3c-0.4,0-0.6,0.1-0.8,0.4
		s-0.2,0.6-0.2,1.2v2.8h4.8v-2.8c0-0.6-0.1-1-0.2-1.2c-0.1-0.2-0.4-0.3-0.8-0.3v-0.3h3.1v0.3c-0.4,0-0.6,0.1-0.8,0.3
		c-0.1,0.2-0.2,0.6-0.2,1.2v6.1c0,0.6,0.1,1,0.2,1.2c0.1,0.2,0.4,0.3,0.8,0.3v0.3H73v-0.3c0.4,0,0.6-0.1,0.8-0.3
		C73.9,111.7,73.9,111.3,73.9,110.7z"/>
	<path d="M77.6,107.6c0-1.4,0.4-2.6,1.3-3.6c0.9-1,2-1.4,3.4-1.4c1.3,0,2.4,0.5,3.3,1.5c0.9,1,1.3,2.2,1.3,3.6
		c0,1.4-0.5,2.7-1.4,3.7c-0.9,1-2,1.5-3.3,1.5c-1.3,0-2.4-0.5-3.3-1.5C78,110.3,77.6,109,77.6,107.6z M78.9,107.6
		c0,1.4,0.3,2.6,0.9,3.4c0.6,0.9,1.4,1.3,2.4,1.3c1,0,1.8-0.4,2.4-1.3c0.6-0.9,0.9-2,0.9-3.3c0-1.4-0.3-2.6-0.9-3.5
		c-0.6-0.9-1.4-1.3-2.4-1.3c-1,0-1.8,0.4-2.5,1.3C79.2,105.1,78.9,106.2,78.9,107.6z"/>
	<path d="M91.4,102.8v0.3c-0.4,0-0.6,0.1-0.8,0.3c-0.1,0.2-0.2,0.6-0.2,1.2v6.1c0,0.6,0.1,1,0.2,1.2c0.1,0.2,0.4,0.3,0.8,0.3v0.3
		h-3.2v-0.3c0.4,0,0.6-0.1,0.8-0.3c0.1-0.2,0.2-0.6,0.2-1.2v-6.1c0-0.6-0.1-1-0.2-1.2c-0.1-0.2-0.4-0.3-0.8-0.3v-0.3H91.4z"/>
	<path d="M102.2,103.1v-0.3h2.6v0.3c-0.4,0-0.7,0.1-0.9,0.3c-0.2,0.2-0.2,0.6-0.2,1.2v7.9h-0.3l-6.2-8.5v6.8c0,0.5,0.1,0.8,0.3,1
		c0.2,0.2,0.5,0.3,0.9,0.3v0.3h-2.7v-0.3c0.4,0,0.7-0.1,0.9-0.4c0.1-0.2,0.2-0.7,0.2-1.3v-5.7c0-0.6-0.1-1.1-0.3-1.3
		c-0.2-0.3-0.5-0.4-1-0.5v-0.3h2.2l5.5,7.6v-5.7c0-0.6-0.1-1-0.2-1.2S102.6,103.1,102.2,103.1z"/>
	<path d="M111.5,106.5h0.3v2.4h-0.3c-0.1-0.4-0.2-0.7-0.3-0.8c-0.1-0.1-0.4-0.2-0.9-0.2h-2.2v3.5c0,0.2,0,0.4,0.1,0.5
		c0.1,0.1,0.3,0.1,0.5,0.1h1.5c0.5,0,0.9,0,1.1-0.1c0.2-0.1,0.4-0.2,0.5-0.4c0.1-0.2,0.3-0.5,0.5-0.9h0.3l-0.4,1.8h-6.3v-0.3
		c0.4,0,0.7-0.1,0.8-0.3c0.1-0.2,0.2-0.6,0.2-1.2v-6.1c0-0.6-0.1-1-0.2-1.2c-0.1-0.2-0.4-0.3-0.8-0.3v-0.3h6.3v1.6h-0.2
		c-0.1-0.5-0.2-0.8-0.4-0.9c-0.2-0.2-0.5-0.2-1.1-0.2h-2.5v4.2h2.4c0.3,0,0.6-0.1,0.7-0.2C111.3,107.1,111.4,106.8,111.5,106.5z"/>
	<path d="M126.9,102.8v0.3c-0.3,0-0.6,0.2-0.9,0.5c-0.2,0.3-0.5,0.8-0.7,1.5l-2.5,7.6h-0.3l-2.4-7.2l-2.3,7.2h-0.3l-2.7-8
		c-0.1-0.4-0.3-0.8-0.4-1c-0.1-0.2-0.2-0.4-0.4-0.4c-0.1-0.1-0.4-0.1-0.7-0.1v-0.3h3.2v0.3c-0.5,0.1-0.8,0.3-0.8,0.6
		c0,0.1,0,0.3,0.1,0.5l2.1,6.2l1.9-5.7l-0.2-0.6c-0.1-0.4-0.3-0.7-0.5-0.8c-0.2-0.2-0.4-0.2-0.8-0.2v-0.3h3.2v0.3
		c-0.6,0-0.8,0.2-0.8,0.6c0,0.2,0,0.4,0.1,0.6l2,6.2l1.8-5.4c0.1-0.4,0.2-0.8,0.2-1.1c0-0.6-0.3-0.8-0.9-0.8v-0.3H126.9z"/>
	<path d="M139.3,102.6v2.9H139c-0.2-0.9-0.5-1.6-1-2c-0.5-0.4-1.1-0.6-1.8-0.6c-1,0-1.8,0.4-2.4,1.2c-0.6,0.8-0.9,1.9-0.9,3.2
		c0,1.5,0.3,2.6,0.9,3.5c0.6,0.9,1.4,1.3,2.4,1.3c1.4,0,2.4-0.7,3.1-2.1l0.2,0.2c-0.3,0.8-0.8,1.4-1.4,1.8c-0.7,0.5-1.4,0.7-2.2,0.7
		c-0.8,0-1.5-0.2-2.2-0.6c-0.7-0.4-1.2-1-1.6-1.7c-0.4-0.7-0.5-1.6-0.5-2.5c0-1.5,0.4-2.8,1.3-3.8c0.9-1,1.9-1.5,3.2-1.5
		c0.4,0,1,0.1,1.7,0.3c0.4,0.1,0.6,0.1,0.8,0.1c0.2,0,0.4-0.1,0.5-0.3H139.3z"/>
	<path d="M143.6,102.8v0.3c-0.4,0-0.6,0.1-0.8,0.3c-0.1,0.2-0.2,0.6-0.2,1.2v6.1c0,0.6,0.1,1,0.2,1.2c0.1,0.2,0.4,0.3,0.8,0.3v0.3
		h-3.2v-0.3c0.4,0,0.6-0.1,0.8-0.3c0.1-0.2,0.2-0.6,0.2-1.2v-6.1c0-0.6-0.1-1-0.2-1.2c-0.1-0.2-0.4-0.3-0.8-0.3v-0.3H143.6z"/>
	<path d="M150.2,103.3h-1.3v7.5c0,0.6,0.1,1,0.2,1.2c0.1,0.2,0.4,0.3,0.8,0.3v0.3h-3.1v-0.3c0.4,0,0.6-0.1,0.8-0.4
		c0.1-0.2,0.2-0.6,0.2-1.2v-7.4h-1.3c-0.6,0-1,0.1-1.3,0.3c-0.3,0.2-0.4,0.6-0.5,1.1h-0.3v-2.2h0.3c0.2,0.2,0.7,0.4,1.3,0.4h4.6
		c0.7,0,1.1-0.1,1.4-0.4h0.3v2.2h-0.2c-0.1-0.5-0.3-0.9-0.6-1.1C151.2,103.4,150.8,103.3,150.2,103.3z"/>
	<path d="M159.5,104.2l-2,3.4v3.1c0,0.6,0.1,1,0.2,1.2c0.1,0.2,0.4,0.3,0.8,0.3v0.3h-3.2v-0.3c0.4,0,0.7-0.1,0.9-0.3
		c0.1-0.2,0.2-0.6,0.2-1.2v-3.1l-1.9-3.2c-0.3-0.5-0.6-0.9-0.8-1.1c-0.2-0.2-0.5-0.3-0.8-0.3v-0.3h3.4v0.3c-0.6,0-0.9,0.2-0.9,0.5
		c0,0.1,0.1,0.3,0.2,0.5l1.7,2.9l1.4-2.4c0.2-0.4,0.3-0.7,0.3-0.9c0-0.4-0.2-0.5-0.6-0.5v-0.3h2.4v0.3c-0.3,0-0.6,0.1-0.8,0.2
		C160,103.4,159.7,103.7,159.5,104.2z"/>
</g>
</svg>
