<?xml version="1.0" encoding="utf-8"?>
<!-- Generator: Adobe Illustrator 23.0.5, SVG Export Plug-In . SVG Version: 6.00 Build 0)  -->
<svg version="1.1" id="Layer_1" xmlns="http://www.w3.org/2000/svg" xmlns:xlink="http://www.w3.org/1999/xlink" x="0px" y="0px"
	 width="60px" height="60px" viewBox="0 0 60 60" style="enable-background:new 0 0 60 60;" xml:space="preserve">
<style type="text/css">
	.st0{fill:url(#SVGID_1_);}
</style>
<linearGradient id="SVGID_1_" gradientUnits="userSpaceOnUse" x1="10.3277" y1="16.8908" x2="49.5043" y2="43.0086">
	<stop  offset="0" style="stop-color:#C5902C"/>
	<stop  offset="1" style="stop-color:#FFDE77"/>
</linearGradient>
<path class="st0" d="M48.9,20.5c0-0.2-0.1-0.3-0.1-0.4c0-0.1,0-0.1-0.1-0.2c-0.5-1.5-1.9-2.6-3.6-2.6h0.3c0,0-6.7-1-15.6-1.1
	c-8.9,0-15.6,1.1-15.6,1.1h0.3c-1.7,0-3.1,1.1-3.6,2.6c0,0.1,0,0.1-0.1,0.2c0,0.1-0.1,0.3-0.1,0.4c-0.2,1.7-0.6,5.2-0.7,9.4
	c0,4.2,0.4,7.6,0.7,9.4c0,0.2,0.1,0.3,0.1,0.4c0,0.1,0,0.1,0.1,0.2c0.5,1.5,1.9,2.6,3.6,2.6h-0.3c0,0,6.7,1,15.6,1.1
	c8.9,0,15.6-1.1,15.6-1.1h-0.3c1.7,0,3.1-1.1,3.6-2.6c0-0.1,0-0.1,0.1-0.2c0-0.1,0.1-0.3,0.1-0.4c0.2-1.7,0.6-5.2,0.7-9.4
	C49.6,25.7,49.2,22.2,48.9,20.5z M35.7,30.7l-8,5.8c-0.2,0.1-0.4,0.2-0.6,0.2c-0.1,0-0.3,0-0.4-0.1c-0.3-0.2-0.5-0.5-0.5-0.9V24.1
	c0-0.4,0.2-0.7,0.5-0.9c0.3-0.2,0.7-0.1,1,0.1l8,5.8c0.3,0.2,0.4,0.5,0.4,0.8C36.1,30.3,35.9,30.5,35.7,30.7z"/>
</svg>
